<?xml version="1.0" standalone="no"?>
<!DOCTYPE svg PUBLIC "-//W3C//DTD SVG 20010904//EN"
 "http://www.w3.org/TR/2001/REC-SVG-20010904/DTD/svg10.dtd">
<svg version="1.0" xmlns="http://www.w3.org/2000/svg"
 width="612.000000pt" height="194.000000pt" viewBox="0 0 612.000000 194.000000"
 preserveAspectRatio="xMidYMid meet">

<g transform="translate(0.000000,194.000000) scale(0.100000,-0.100000)"
fill="#000000" stroke="none">
<path d="M3361 1844 c0 -11 3 -14 6 -6 3 7 2 16 -1 19 -3 4 -6 -2 -5 -13z"/>
<path d="M3338 1834 c-13 -13 -9 -34 7 -34 18 0 20 -16 4 -26 -6 -3 -15 -1
-19 6 -5 9 -11 -2 -17 -31 -9 -43 1 -73 21 -62 4 3 12 -1 17 -8 13 -20 11 -32
-4 -26 -10 4 -13 -11 -14 -58 0 -68 -6 -85 -29 -85 -9 0 -14 11 -14 32 0 19
-4 28 -9 23 -12 -14 -21 -85 -11 -85 5 0 7 -6 5 -12 -3 -7 6 -25 19 -39 20
-22 23 -33 19 -72 -3 -26 -10 -47 -14 -47 -5 0 -8 3 -8 8 3 20 -2 32 -16 32
-8 0 -15 -9 -15 -20 0 -11 -5 -20 -11 -20 -6 0 -8 7 -5 16 24 62 7 115 -41
131 -68 23 -137 -39 -113 -102 15 -39 13 -45 -15 -45 -37 0 -55 -73 -55 -229
l0 -126 -50 -18 c-28 -10 -55 -15 -60 -12 -5 3 -7 29 -5 57 6 60 -1 68 -63 68
-38 0 -43 -2 -37 -19 3 -11 2 -22 -3 -25 -6 -3 -13 -27 -17 -53 -4 -27 -10
-42 -12 -35 -3 6 -9 12 -14 12 -6 0 -8 -4 -4 -9 3 -6 -1 -13 -9 -18 -8 -4 -33
-25 -55 -46 -28 -25 -41 -33 -41 -22 0 8 -11 21 -25 27 -17 7 -22 15 -15 22
13 16 -3 38 -23 30 -19 -7 -22 -20 -6 -29 14 -9 -21 -34 -38 -28 -18 7 -29
-27 -12 -39 9 -6 0 -7 -28 -4 -24 3 -43 4 -43 2 0 -2 7 -22 15 -46 13 -38 13
-44 -3 -65 -11 -15 -23 -22 -34 -19 -14 4 -18 -1 -18 -20 0 -14 -3 -26 -8 -26
-4 0 -25 -23 -47 -50 l-40 -50 -62 0 c-68 0 -84 15 -27 26 40 7 43 31 6 50
-32 16 -51 44 -52 77 0 15 -6 29 -12 31 -7 2 -35 11 -61 19 -48 15 -48 14 -57
-9 -11 -29 -21 -30 -45 -4 -10 11 -23 20 -28 20 -6 0 -3 -8 6 -18 10 -10 17
-22 17 -25 0 -4 9 -16 20 -27 28 -28 25 -49 -12 -81 l-33 -28 38 -1 c20 0 37
-4 37 -10 0 -6 -37 -10 -90 -10 -105 0 -136 -11 -152 -57 -12 -32 -14 -33 -63
-31 -39 1 -43 2 -16 5 46 6 60 27 61 90 l0 51 -58 37 c-49 31 -63 36 -102 32
-25 -3 -54 -8 -64 -12 -16 -7 -18 -5 -14 13 6 23 -7 31 -15 10 -6 -14 -71 49
-164 157 -29 33 -54 57 -57 55 -2 -3 27 -41 65 -85 38 -44 76 -93 84 -110 8
-16 20 -37 26 -46 10 -13 3 -23 -36 -60 -46 -44 -47 -46 -37 -83 l11 -38 -37
8 c-20 5 -102 9 -182 9 -80 0 -214 4 -298 9 l-152 9 0 31 c0 17 -5 38 -10 46
-7 11 -10 4 -10 -27 l0 -43 -53 0 c-46 0 -53 3 -54 21 -1 11 2 32 7 45 5 13 6
24 1 24 -10 0 -21 -35 -21 -67 0 -16 -5 -20 -19 -16 -15 4 -21 16 -24 47 l-4
41 -1 -42 c-2 -41 -4 -43 -32 -43 -16 0 -30 5 -30 10 0 6 -7 10 -15 10 -8 0
-15 -4 -15 -8 0 -12 -124 -1 -132 12 -6 8 -8 7 -8 -1 0 -31 -19 -9 -24 30 -11
73 -16 136 -8 102 6 -25 9 -27 15 -12 4 10 3 26 -3 36 -6 12 -6 31 1 53 6 22
6 50 0 74 -5 22 -9 31 -10 22 -1 -11 -15 -21 -38 -28 -62 -16 -88 -40 -91 -82
-3 -36 9 -50 24 -27 3 6 15 9 25 6 10 -3 22 -1 25 4 3 5 12 9 20 9 11 0 14
-16 14 -72 0 -40 4 -80 10 -88 11 -18 -5 -30 -42 -30 -25 0 -28 3 -29 38 0 20
-3 31 -6 25 -7 -20 -23 -15 -17 5 5 14 4 15 -5 2 -15 -21 -14 -30 4 -30 19 0
19 -7 0 -26 -12 -12 -15 -12 -15 -2 0 10 -2 10 -9 -1 -8 -12 -12 -12 -25 -2
-9 8 -16 10 -16 5 0 -5 -5 -2 -10 6 -6 10 -10 11 -10 3 0 -16 -91 -18 -107 -2
-7 7 -13 7 -17 1 -3 -5 63 -61 147 -123 83 -62 156 -116 160 -120 5 -4 3 -16
-4 -26 -7 -11 -9 -28 -6 -37 8 -19 57 -22 75 -4 10 10 32 -7 107 -83 52 -53
95 -100 95 -105 0 -5 -33 -10 -72 -12 -40 -2 -79 -7 -87 -11 -18 -11 118 -24
152 -16 14 4 50 2 81 -5 47 -9 65 -9 111 5 31 9 70 13 88 10 18 -3 183 -8 367
-11 184 -4 452 -8 595 -11 334 -6 387 -6 521 2 75 5 135 3 185 -6 41 -7 90
-12 109 -12 19 1 229 4 465 7 271 3 459 9 508 17 68 11 89 10 165 -5 72 -15
98 -16 147 -7 41 7 194 8 485 3 386 -6 1076 -7 1175 -1 22 1 112 -1 200 -4 88
-4 149 -3 136 1 -23 7 -17 14 83 91 114 88 136 117 108 139 -11 8 -18 9 -20 2
-5 -14 -29 -13 -35 3 -4 9 -6 9 -6 0 -2 -23 -31 -14 -32 10 l-1 22 -6 -22 c-7
-23 -25 -20 -35 7 -4 12 -6 11 -6 -2 -1 -17 -17 -18 -190 -18 -142 0 -191 3
-194 13 -4 10 -6 10 -6 0 -1 -7 -7 -13 -15 -13 -8 0 -17 6 -19 13 -4 10 -6 10
-6 0 -1 -13 -53 -18 -64 -6 -4 3 -38 5 -76 4 -65 -2 -70 -1 -74 21 l-4 23 -2
-22 c-1 -21 -6 -23 -56 -23 -54 0 -55 1 -55 29 0 26 -4 29 -41 35 -22 4 -45 4
-50 1 -38 -24 -77 -7 -63 29 6 14 -40 56 -61 56 -7 0 -16 15 -19 33 -5 26 -13
36 -41 46 -34 12 -35 14 -35 62 0 27 5 49 10 49 6 0 10 16 10 35 0 38 3 37
-85 37 -43 0 -46 1 -20 8 l30 8 -27 1 -28 1 -2 148 -2 147 -5 -147 c-4 -80 -9
-149 -12 -153 -10 -9 -89 6 -83 16 3 5 0 9 -5 9 -6 0 -11 -5 -11 -11 0 -5 -4
-7 -10 -4 -5 3 -10 2 -10 -4 0 -11 -39 -9 -60 4 -9 5 -15 4 -18 -4 -3 -9 -7
-9 -18 0 -9 7 -14 33 -15 68 -1 31 -3 48 -6 39 -2 -10 -8 -18 -13 -18 -4 0 -4
-16 0 -35 5 -20 4 -33 -1 -29 -5 3 -9 -2 -9 -11 0 -15 -11 -16 -80 -12 -44 2
-82 6 -84 8 -2 2 -18 39 -35 82 -31 77 -40 150 -21 162 6 3 10 11 10 16 0 6
-5 7 -11 3 -6 -3 -15 0 -20 7 -6 10 -9 11 -9 2 0 -23 -37 -14 -44 10 -10 37
-7 77 7 77 6 1 26 7 42 16 l30 14 -42 -4 -43 -4 0 43 c0 37 3 44 23 48 18 4
17 4 -6 6 -22 1 -27 5 -23 19 3 9 1 35 -4 57 -6 25 -6 41 0 43 6 2 6 10 0 22
-7 13 -6 19 5 24 10 4 14 18 13 48 l-1 43 -4 -42 c-4 -42 -16 -56 -26 -30 -3
6 -6 -2 -6 -20 -1 -27 -5 -32 -28 -36 l-28 -4 29 -2 c26 -1 28 -3 23 -33 -17
-94 -19 -100 -38 -95 -11 3 -19 1 -19 -4 0 -5 9 -9 21 -9 17 0 20 -5 17 -37
-3 -38 -3 -38 -45 -37 -24 1 -43 -2 -43 -7 0 -5 12 -9 28 -9 46 0 55 -12 48
-64 -7 -46 -7 -46 -47 -46 -21 0 -39 -2 -39 -4 0 -1 5 -17 11 -35 10 -28 8
-41 -15 -94 l-26 -63 -200 4 c-182 4 -200 3 -194 -12 3 -9 1 -22 -5 -30 -6 -7
-8 -16 -4 -19 3 -4 -12 -7 -35 -7 -39 0 -41 2 -48 36 -4 25 -14 38 -30 44 -19
8 -24 18 -26 47 -1 21 -2 47 -3 58 -1 11 -4 26 -9 33 -4 6 -5 16 -2 21 8 12
-17 31 -31 23 -6 -4 -13 -16 -16 -27 -4 -18 -5 -18 -6 2 -1 16 9 27 30 38 24
13 30 21 26 38 -3 12 -9 34 -12 48 -5 21 -1 27 20 37 14 7 34 12 43 13 10 0
12 3 5 6 -7 2 -13 17 -13 32 0 21 -6 29 -31 36 -47 15 -36 29 33 43 80 16 107
40 50 45 -21 1 -25 16 -7 29 6 4 -10 7 -35 7 -27 0 -38 -3 -28 -7 27 -11 7
-30 -37 -33 l-40 -4 -9 93 c-9 106 -6 122 28 122 21 0 68 15 85 27 2 1 -1 9
-8 17 -6 8 -11 18 -10 22 1 5 1 15 0 23 -2 25 -16 1 -16 -27 0 -25 -4 -27 -44
-30 -40 -3 -43 -1 -38 17 3 12 1 23 -3 26 -4 3 -8 21 -7 41 1 29 4 34 19 31
15 -4 18 1 18 29 0 19 -4 34 -10 34 -5 0 -10 -11 -10 -25 0 -14 -4 -25 -10
-25 -5 0 -10 11 -10 25 0 18 7 26 25 31 14 3 25 12 25 20 0 12 -4 12 -20 2
-10 -7 -22 -10 -25 -7 -10 11 14 59 30 59 8 0 15 8 14 18 0 10 -3 12 -6 5 -6
-15 -63 -18 -63 -3 0 6 12 10 28 11 15 0 21 3 15 6 -7 2 -13 12 -13 21 -1 15
-2 15 -11 0 -13 -22 -36 -23 -41 -2 -2 9 -6 12 -10 8z m22 -99 c0 -19 -5 -25
-21 -25 -15 0 -19 4 -15 16 3 9 6 20 6 25 0 5 7 9 15 9 9 0 15 -9 15 -25z
m826 -947 c8 -40 14 -76 14 -80 0 -5 -16 -8 -35 -8 -39 0 -43 13 -26 80 5 19
12 48 16 64 9 40 15 28 31 -56z"/>
<path d="M4257 1121 c-3 -14 0 -21 9 -21 16 0 18 9 5 28 -6 10 -10 9 -14 -7z"/>
<path d="M4076 1121 c-4 -7 -5 -15 -2 -18 9 -9 19 4 14 18 -4 11 -6 11 -12 0z"/>
<path d="M335 651 c-4 -12 -4 -25 -1 -28 3 -4 6 2 6 13 1 14 5 11 15 -11 12
-25 14 -26 9 -5 -11 45 -21 56 -29 31z"/>
<path d="M401 603 c0 -13 3 -23 8 -23 5 0 12 -8 14 -17 3 -10 5 0 5 22 0 30
-1 35 -7 20 l-8 -20 -5 20 c-5 18 -6 18 -7 -2z"/>
<path d="M541 604 c0 -11 3 -14 6 -6 3 7 2 16 -1 19 -3 4 -6 -2 -5 -13z"/>
<path d="M341 594 c0 -11 3 -14 6 -6 3 7 2 16 -1 19 -3 4 -6 -2 -5 -13z"/>
<path d="M502 585 c0 -16 2 -22 5 -12 2 9 2 23 0 30 -3 6 -5 -1 -5 -18z"/>
<path d="M668 565 c-2 -19 0 -35 4 -35 4 0 8 16 8 35 0 19 -2 35 -4 35 -2 0
-6 -16 -8 -35z"/>
<path d="M370 585 c0 -5 5 -17 10 -25 5 -8 10 -10 10 -5 0 6 -5 17 -10 25 -5
8 -10 11 -10 5z"/>
<path d="M532 560 c0 -14 2 -19 5 -12 2 6 2 18 0 25 -3 6 -5 1 -5 -13z"/>
<path d="M698 533 c7 -3 16 -2 19 1 4 3 -2 6 -13 5 -11 0 -14 -3 -6 -6z"/>
<path d="M853 523 c9 -2 23 -2 30 0 6 3 -1 5 -18 5 -16 0 -22 -2 -12 -5z"/>
<path d="M983 513 c15 -2 37 -2 50 0 12 2 0 4 -28 4 -27 0 -38 -2 -22 -4z"/>
<path d="M1148 503 c12 -2 32 -2 45 0 12 2 2 4 -23 4 -25 0 -35 -2 -22 -4z"/>
<path d="M5293 313 c15 -2 37 -2 50 0 12 2 0 4 -28 4 -27 0 -38 -2 -22 -4z"/>
<path d="M5531 294 c0 -11 3 -14 6 -6 3 7 2 16 -1 19 -3 4 -6 -2 -5 -13z"/>
<path d="M5638 303 c39 -2 105 -2 145 0 39 1 7 3 -73 3 -80 0 -112 -2 -72 -3z"/>
<path d="M5251 284 c0 -11 3 -14 6 -6 3 7 2 16 -1 19 -3 4 -6 -2 -5 -13z"/>
<path d="M5882 280 c0 -14 2 -19 5 -12 2 6 2 18 0 25 -3 6 -5 1 -5 -13z"/>
<path d="M5922 280 c0 -14 2 -19 5 -12 2 6 2 18 0 25 -3 6 -5 1 -5 -13z"/>
<path d="M6043 293 c9 -2 25 -2 35 0 9 3 1 5 -18 5 -19 0 -27 -2 -17 -5z"/>
</g>
</svg>
